<svg viewBox="0 0 1427 771" fill="none" xmlns="http://www.w3.org/2000/svg">
<rect width="1427" height="771" fill="white"/>
<path d="M72.5 83C72.5 79.4102 75.4101 76.5 79 76.5H445C448.59 76.5 451.5 79.4101 451.5 83V698C451.5 701.59 448.59 704.5 445 704.5H79C75.4102 704.5 72.5 701.59 72.5 698V83Z" fill="white" stroke="#707070"/>
<path opacity="0.6" d="M531.5 83C531.5 79.4102 534.41 76.5 538 76.5H904C907.59 76.5 910.5 79.4101 910.5 83V698C910.5 701.59 907.59 704.5 904 704.5H538C534.41 704.5 531.5 701.59 531.5 698V83Z" fill="white" stroke="#707070"/>
<rect x="990.5" y="76.5" width="379" height="628" rx="6.5" fill="white" stroke="#707070"/>
<path d="M72 76H452V306C452 341.898 422.898 371 387 371H137C101.101 371 72 341.898 72 306V76Z" fill="#40AAA8"/>
<path d="M531 76H911V306C911 341.898 881.898 371 846 371H596C560.101 371 531 341.898 531 306V76Z" fill="#40AAA8"/>
<path d="M990 76H1370V306C1370 341.898 1340.9 371 1305 371H1055C1019.1 371 990 341.898 990 306V76Z" fill="#40AAA8"/>
<rect x="93" y="636" width="338" height="47" rx="7" fill="#40AAA8"/>
<rect x="552" y="636" width="338" height="47" rx="7" fill="#40AAA8"/>
<rect x="1011" y="636" width="338" height="47" rx="7" fill="#40AAA8"/>
</svg>
