<svg viewBox="0 0 1427 771" fill="none" xmlns="http://www.w3.org/2000/svg">
<rect width="1427" height="771" fill="white"/>
<path d="M137 77.5H445C448.038 77.5 450.5 79.9624 450.5 83V698C450.5 701.038 448.038 703.5 445 703.5H79C75.9624 703.5 73.5 701.038 73.5 698V141C73.5 105.93 101.93 77.5 137 77.5Z" fill="white" stroke="#C3C3C3" stroke-width="3"/>
<path opacity="0.6" d="M596 77.5H904C907.038 77.5 909.5 79.9624 909.5 83V698C909.5 701.038 907.038 703.5 904 703.5H538C534.962 703.5 532.5 701.038 532.5 698V141C532.5 105.93 560.93 77.5 596 77.5Z" fill="white" stroke="#C3C3C3" stroke-width="3"/>
<path d="M1055 77.5H1363C1366.04 77.5 1368.5 79.9624 1368.5 83V698C1368.5 701.038 1366.04 703.5 1363 703.5H997C993.962 703.5 991.5 701.038 991.5 698V141C991.5 105.93 1019.93 77.5 1055 77.5Z" fill="white" stroke="#C3C3C3" stroke-width="3"/>
<path d="M72 141C72 105.101 101.101 76 137 76H452V306C452 341.898 422.898 371 387 371H72V141Z" fill="#40AAA8"/>
<path d="M531 141C531 105.101 560.101 76 596 76H911V306C911 341.898 881.898 371 846 371H531V141Z" fill="#40AAA8"/>
<path d="M990 141C990 105.101 1019.1 76 1055 76H1370V306C1370 341.898 1340.9 371 1305 371H990V141Z" fill="#40AAA8"/>
<rect x="93" y="636" width="338" height="47" rx="7" fill="#40AAA8"/>
<rect x="552" y="636" width="338" height="47" rx="7" fill="#40AAA8"/>
<rect x="1011" y="636" width="338" height="47" rx="7" fill="#40AAA8"/>
<rect x="128" y="415" width="272" height="40" rx="10" fill="#D9D9D9"/>
<rect x="128" y="482" width="272" height="40" rx="10" fill="#D9D9D9"/>
<rect x="128" y="548" width="272" height="40" rx="10" fill="#D9D9D9"/>
<rect x="585" y="415" width="272" height="40" rx="10" fill="#D9D9D9"/>
<rect x="585" y="482" width="272" height="40" rx="10" fill="#D9D9D9"/>
<rect x="585" y="548" width="272" height="40" rx="10" fill="#D9D9D9"/>
<rect x="1044" y="415" width="272" height="40" rx="10" fill="#D9D9D9"/>
<rect x="1044" y="482" width="272" height="40" rx="10" fill="#D9D9D9"/>
<rect x="1044" y="548" width="272" height="40" rx="10" fill="#D9D9D9"/>
</svg>
