<svg viewBox="0 0 1427 771" fill="none" xmlns="http://www.w3.org/2000/svg">
<rect width="1427" height="771" fill="white"/>
<path d="M72.5 83C72.5 79.4102 75.4101 76.5 79 76.5H445C448.59 76.5 451.5 79.4101 451.5 83V698C451.5 701.59 448.59 704.5 445 704.5H79C75.4102 704.5 72.5 701.59 72.5 698V83Z" fill="white" stroke="#707070"/>
<path opacity="0.6" d="M531.5 83C531.5 79.4102 534.41 76.5 538 76.5H904C907.59 76.5 910.5 79.4101 910.5 83V698C910.5 701.59 907.59 704.5 904 704.5H538C534.41 704.5 531.5 701.59 531.5 698V83Z" fill="white" stroke="#707070"/>
<path d="M990.5 83C990.5 79.4102 993.41 76.5 997 76.5H1363C1366.59 76.5 1369.5 79.4101 1369.5 83V698C1369.5 701.59 1366.59 704.5 1363 704.5H997C993.41 704.5 990.5 701.59 990.5 698V83Z" fill="white" stroke="#707070"/>
<path d="M72 76H452V371H72V76Z" fill="#40AAA8"/>
<path d="M531 76H911V371H531V76Z" fill="#40AAA8"/>
<path d="M990 76H1370V371H990V76Z" fill="#40AAA8"/>
<rect x="93" y="636" width="338" height="47" rx="7" fill="#40AAA8"/>
<rect x="552" y="636" width="338" height="47" rx="7" fill="#40AAA8"/>
<rect x="1011" y="636" width="338" height="47" rx="7" fill="#40AAA8"/>
</svg>
