<svg  viewBox="0 0 1427 771" fill="none" xmlns="http://www.w3.org/2000/svg">
<rect width="1427" height="771" fill="white"/>
<path d="M79 77.5H445C448.038 77.5 450.5 79.9624 450.5 83V698C450.5 701.038 448.038 703.5 445 703.5H79C75.9624 703.5 73.5 701.038 73.5 698V83C73.5 79.9624 75.9624 77.5 79 77.5Z" fill="white" stroke="#C3C3C3" stroke-width="3"/>
<path opacity="0.6" d="M538 77.5H904C907.038 77.5 909.5 79.9624 909.5 83V698C909.5 701.038 907.038 703.5 904 703.5H538C534.962 703.5 532.5 701.038 532.5 698V83C532.5 79.9624 534.962 77.5 538 77.5Z" fill="white" stroke="#C3C3C3" stroke-width="3"/>
<path d="M997 77.5H1363C1366.04 77.5 1368.5 79.9624 1368.5 83V698C1368.5 701.038 1366.04 703.5 1363 703.5H997C993.962 703.5 991.5 701.038 991.5 698V83C991.5 79.9624 993.962 77.5 997 77.5Z" fill="white" stroke="#C3C3C3" stroke-width="3"/>
<path d="M72 76H452V371H72V76Z" fill="#40AAA8"/>
<path d="M531 76H911V371H531V76Z" fill="#40AAA8"/>
<path d="M990 76H1370V371H990V76Z" fill="#40AAA8"/>
<rect x="93" y="636" width="338" height="47" rx="7" fill="#40AAA8"/>
<rect x="552" y="636" width="338" height="47" rx="7" fill="#40AAA8"/>
<rect x="1011" y="636" width="338" height="47" rx="7" fill="#40AAA8"/>
<rect x="128" y="416" width="272" height="40" rx="10" fill="#D9D9D9"/>
<rect x="128" y="483" width="272" height="40" rx="10" fill="#D9D9D9"/>
<rect x="128" y="549" width="272" height="40" rx="10" fill="#D9D9D9"/>
<rect x="585" y="416" width="272" height="40" rx="10" fill="#D9D9D9"/>
<rect x="585" y="483" width="272" height="40" rx="10" fill="#D9D9D9"/>
<rect x="585" y="549" width="272" height="40" rx="10" fill="#D9D9D9"/>
<rect x="1044" y="416" width="272" height="40" rx="10" fill="#D9D9D9"/>
<rect x="1044" y="483" width="272" height="40" rx="10" fill="#D9D9D9"/>
<rect x="1044" y="549" width="272" height="40" rx="10" fill="#D9D9D9"/>
</svg>
